<?xml version="1.0" standalone="no"?>
<!DOCTYPE svg PUBLIC "-//W3C//DTD SVG 20010904//EN"
 "http://www.w3.org/TR/2001/REC-SVG-20010904/DTD/svg10.dtd">
<svg version="1.0" xmlns="http://www.w3.org/2000/svg"
 width="1024.000000pt" height="1024.000000pt" viewBox="0 0 1024.000000 1024.000000"
 preserveAspectRatio="xMidYMid meet">

<g transform="translate(0.000000,1024.000000) scale(0.100000,-0.100000)"
fill="#000000" stroke="none">
<path d="M5036 8387 c-98 -102 -323 -454 -378 -590 -31 -76 -33 -90 -33 -198
l0 -116 42 -85 c90 -180 262 -288 458 -288 244 1 457 181 494 420 17 108 -2
196 -76 345 -77 154 -338 533 -378 549 -9 3 -33 6 -53 6 -29 0 -43 -8 -76 -43z
m172 -350 c156 -222 205 -326 205 -432 0 -119 -52 -203 -158 -256 -58 -28 -71
-31 -142 -28 -89 5 -144 28 -205 86 -57 55 -81 121 -76 212 3 66 9 89 49 171
57 118 226 373 241 364 4 -3 42 -55 86 -117z"/>
<path d="M6723 8260 c-12 -5 -61 -58 -108 -117 -192 -242 -311 -435 -334 -544
-74 -342 213 -655 557 -608 190 26 367 185 417 374 53 205 -19 376 -317 750
-120 149 -151 171 -215 145z m166 -415 c133 -178 171 -259 171 -364 0 -114
-92 -237 -200 -270 -64 -19 -159 -14 -215 13 -53 24 -129 99 -146 142 -58 155
-15 273 206 557 l60 78 28 -33 c16 -18 59 -73 96 -123z"/>
<path d="M3385 8216 c-60 -62 -251 -319 -309 -414 -120 -200 -135 -364 -50
-539 32 -67 114 -157 180 -199 161 -103 368 -103 528 0 157 101 245 271 233
451 -5 91 -30 162 -97 278 -51 89 -245 351 -310 419 -41 43 -51 48 -90 48 -38
0 -48 -5 -85 -44z m280 -476 c72 -110 90 -163 90 -260 0 -75 -3 -91 -27 -132
-100 -170 -326 -201 -464 -63 -65 65 -89 129 -82 224 7 101 65 206 221 404
l69 88 75 -98 c42 -54 95 -127 118 -163z"/>
<path d="M4845 6867 c-28 -13 -65 -41 -84 -62 -67 -77 -66 -64 -69 -547 l-3
-438 -394 0 -395 0 0 368 c0 418 -3 438 -70 515 -72 82 -93 87 -346 87 -249 0
-288 -7 -348 -66 -20 -19 -46 -54 -59 -77 -22 -41 -22 -50 -25 -434 l-3 -393
-197 0 c-230 0 -302 -12 -412 -67 -106 -53 -224 -171 -274 -273 -70 -144 -67
-69 -63 -1578 2 -1273 4 -1361 21 -1416 55 -182 172 -324 331 -401 143 -70
-62 -65 2666 -65 2422 0 2467 0 2543 20 180 46 327 163 405 321 75 156 72 77
69 1604 -3 1293 -4 1363 -22 1415 -32 95 -74 167 -137 234 -76 82 -152 132
-254 170 -78 29 -85 30 -307 34 l-228 4 0 374 c0 352 -1 376 -21 428 -24 66
-100 140 -160 156 -25 7 -128 10 -269 8 l-228 -3 -43 -30 c-61 -43 -105 -105
-118 -165 -7 -32 -11 -188 -11 -410 l0 -360 -395 0 -395 0 0 418 c0 468 -2
486 -66 560 -70 82 -87 87 -354 90 -229 2 -236 2 -285 -21z m483 -204 c9 -13
12 -115 12 -430 l0 -413 -220 0 -220 0 0 413 c0 421 1 438 37 448 7 2 95 3
195 1 157 -2 185 -5 196 -19z m-1658 -93 c19 -19 20 -33 20 -385 l0 -365 -215
0 -215 0 0 367 c0 327 2 368 17 385 14 16 34 18 195 18 165 0 179 -1 198 -20z
m3288 4 l22 -15 0 -370 0 -369 -215 0 -215 0 0 364 0 365 26 20 c25 19 40 21
193 21 135 0 171 -3 189 -16z m734 -1001 c90 -42 160 -110 201 -192 l32 -66 0
-210 c0 -210 0 -210 -28 -267 -80 -163 -273 -229 -442 -150 -48 23 -87 52
-139 105 -166 170 -327 226 -515 178 -183 -46 -308 -166 -380 -366 -43 -120
-66 -161 -122 -221 -129 -136 -373 -154 -519 -38 -65 52 -114 123 -145 211
-62 177 -134 282 -244 352 -191 123 -447 98 -614 -59 -73 -68 -119 -141 -153
-240 -54 -160 -129 -255 -242 -308 -50 -24 -69 -27 -162 -27 -93 0 -112 3
-162 27 -112 52 -180 138 -233 293 -69 205 -205 337 -391 381 -176 41 -340
-18 -499 -181 -79 -81 -143 -118 -231 -134 -160 -29 -319 59 -374 207 -20 52
-21 73 -18 252 3 189 4 197 30 250 53 109 140 184 256 221 55 17 154 18 2542
16 l2485 -2 67 -32z m-4233 -824 c73 -37 116 -88 156 -186 72 -178 116 -255
189 -327 185 -184 445 -227 686 -114 46 22 88 54 146 112 86 86 129 160 190
326 36 97 112 178 193 205 130 43 284 -11 355 -124 13 -20 40 -83 61 -140 105
-285 312 -441 584 -441 257 0 491 175 580 431 66 192 155 278 296 287 103 6
154 -19 286 -142 148 -139 257 -186 430 -186 105 0 195 25 269 75 l51 34 -3
-1007 -3 -1007 -23 -55 c-49 -120 -138 -202 -261 -240 -62 -20 -102 -20 -2515
-20 -2682 0 -2512 -4 -2615 57 -94 55 -166 157 -190 271 -8 37 -11 344 -11
1029 0 929 1 975 18 961 26 -24 111 -64 171 -82 69 -20 199 -21 276 -1 120 31
196 76 292 173 115 117 158 140 269 141 49 1 73 -5 123 -30z"/>
</g>
</svg>
